<svg width="151" height="145" viewBox="0 0 151 145" fill="none" xmlns="http://www.w3.org/2000/svg">
<path d="M58.0315 52.1675L39.5091 52.4138L38 57.3916C42.0976 60.2177 45.9091 63.2874 49.4558 66.5826L59.4117 52.5304L58.0315 52.1675Z" fill="#F3F4F6"/>
<path d="M69.9627 59.9713C66.6736 57.1713 63.1523 54.6953 59.4117 52.5304L49.4558 66.5826C53.1327 69.9985 56.5251 73.6567 59.6568 77.5365L69.9627 59.9713Z" fill="#F3F4F6"/>
<path d="M76.7603 66.5826C74.6062 64.1973 72.3361 61.9936 69.9627 59.9713L59.6568 77.5365C65.8094 85.1588 70.9688 93.6886 75.277 102.983L77.6116 108L76.7603 66.5826Z" fill="#F3F4F6"/>
<path d="M77.6116 108L80.1526 103.074C85.6259 92.4463 91.5571 82.0224 97.9656 71.8103L83.0232 56.899C80.8947 60.045 78.8067 63.272 76.7603 66.5826L77.6116 108Z" fill="#F3F4F6"/>
<path d="M97.9656 36.8968C92.7891 43.1756 87.804 49.833 83.0232 56.899L97.9656 71.8103C101.117 66.7884 104.384 61.8176 107.769 56.899C109.719 54.0668 111.709 51.251 113.74 48.4516L97.9656 36.8968Z" fill="#F3F4F6"/>
<path d="M97.9656 36.8968L113.74 48.4516C118.466 41.9349 123.409 35.5075 128.574 29.1704L113.74 19.4592C108.299 24.9396 103.036 30.7418 97.9656 36.8968Z" fill="#F3F4F6"/>
<path d="M130.788 3.00001L128.982 3.70002C125.503 6.83594 117.088 16.0866 113.74 19.4592L128.574 29.1704C132.869 23.901 142.318 12.694 146.924 7.55009L151 3.00001H130.788Z" fill="#F3F4F6"/>
<path d="M28.5589 54.1886L6.73154 47.1873C8.35259 53.4416 10.1603 55.7271 14.9154 57.7243C20.4569 59.7007 23.4191 58.5306 28.5589 54.1886Z" fill="#38877E"/>
<path d="M23.4796 23.0263C16.0665 30.4393 10.4838 38.493 6.73154 47.1873L28.5589 54.1886C31.1214 48.3313 34.9195 42.8859 39.953 37.8524L23.4796 23.0263Z" fill="#38877E"/>
<path d="M23.4796 23.0263L39.953 37.8524C40.1588 34.9624 40.0708 32.8054 39.6108 30.981C38.3986 26.1737 33.735 22.4678 28.7863 22.1666C27.174 22.0685 25.5158 22.361 23.4796 23.0263Z" fill="#38877E"/>
<path d="M49.1507 5.59184C39.9073 9.34413 31.3502 15.1556 23.4796 23.0263C25.5158 22.361 27.174 22.0685 28.7863 22.1666C33.735 22.4678 38.3986 26.1737 39.6108 30.981C40.0708 32.8054 40.1588 34.9624 39.953 37.8524C44.9866 32.8188 50.615 29.1123 56.8383 26.7328C60.2236 25.3686 63.7763 24.4228 67.4963 23.8954C72.8796 23.1323 77.7063 19.5538 78.8362 14.2353C79.1151 12.9224 79.153 11.5547 78.9524 10.2275C78.1466 4.89455 73.758 0.61441 68.3768 0.980129C61.8183 1.42587 55.4096 2.9631 49.1507 5.59184Z" fill="#00AAE8"/>
<path d="M47.5169 112.697L32.089 132.86C38.1938 133.396 42.5214 132.272 46.4387 127.889C50.9633 121.44 50.933 117.897 47.5169 112.697Z" fill="#623764"/>
<path d="M21.4204 123.926C24.8114 127.317 28.3676 130.295 32.089 132.86L47.5169 112.697C44.6993 110.785 41.995 108.534 39.4039 105.943C36.8345 103.373 34.599 100.693 32.6975 97.9004L11.999 112.541C12.2913 112.976 12.5893 113.41 12.8928 113.841L12.9338 113.899L21.4204 123.926Z" fill="#623764"/>
<path d="M11.999 112.541L32.6975 97.9004C26.7674 95.4264 23.1907 94.6311 16.7466 99.619C12.0664 104.02 11.2667 106.907 11.999 112.541Z" fill="#623764"/>
<path d="M0.691267 73.8194C0.416712 82.8798 2.0183 91.7115 5.49603 100.314C6.83461 103.137 8.48302 106.529 10.2513 109.685L11.1287 111.212C11.413 111.657 11.7031 112.1 11.999 112.541C11.2667 106.907 12.0664 104.02 16.7466 99.619C23.1907 94.6311 26.7674 95.4264 32.6975 97.9004C30.9417 95.3222 29.4706 92.6491 28.2843 89.8811C25.9048 84.0238 24.7151 78.0751 24.7151 72.0348C24.8066 65.903 26.0879 59.9543 28.5589 54.1886C23.4191 58.5306 20.4569 59.7007 14.9154 57.7243C10.1603 55.7271 8.35259 53.4416 6.73154 47.1873C2.88773 55.7902 0.874308 64.6675 0.691267 73.8194Z" fill="#A2CC90"/>
<path fill-rule="evenodd" clip-rule="evenodd" d="M12.9338 113.899L21.4204 123.926C18.2069 120.713 15.3644 117.351 12.8928 113.841L12.9338 113.899ZM10.2513 109.685C8.48302 106.529 6.83461 103.137 5.49603 100.314L8.46436 106.574L10.2513 109.685ZM10.2513 109.685L11.1287 111.212C10.8336 110.711 10.5408 110.201 10.2513 109.685Z" fill="white" fill-opacity="0.01"/>
<path d="M98.1593 138.89L91.158 116.788C87.124 120.273 85.4995 123.484 87.6223 129.414C89.272 134.518 92.1983 138.566 98.1593 138.89Z" fill="#9B2723"/>
<path d="M98.1593 138.89C106.854 134.954 114.862 129.326 122.183 122.004L107.494 105.394C102.461 110.427 97.0153 114.225 91.158 116.788L98.1593 138.89Z" fill="#9B2723"/>
<path d="M107.494 105.394L122.183 122.004C123.389 117.92 123.817 115.15 122.693 112.229C121.524 109.19 119.079 106.639 116.053 105.439C113.591 104.462 111.114 104.623 107.494 105.394Z" fill="#9B2723"/>
<path d="M71.5272 144.93C80.5876 144.655 89.4649 142.642 98.1593 138.89C92.1983 138.566 89.272 134.518 87.6223 129.414C85.4995 123.484 87.124 120.273 91.158 116.788C85.3923 119.259 79.4436 120.54 73.3118 120.632C67.2715 120.632 61.3228 119.442 55.4655 117.062C52.7228 115.887 50.0732 114.432 47.5169 112.697C50.933 117.897 50.9633 121.44 46.4387 127.889C42.5214 132.272 38.1938 133.396 32.089 132.86C36.2017 135.695 40.5161 138.025 45.0323 139.851C53.6352 143.328 62.4668 145.021 71.5272 144.93Z" fill="#B240C1"/>
<path d="M118.751 88.6456C116.28 94.7773 112.528 100.36 107.494 105.394C111.114 104.623 113.591 104.462 116.053 105.439C119.079 106.639 121.524 109.19 122.693 112.229C123.817 115.15 123.389 117.92 122.183 122.004C130.145 114.042 136.002 105.439 139.755 96.1959C142.303 89.9195 143.817 83.5376 144.297 77.0502C144.698 71.6289 140.488 67.1857 135.117 66.3464L135.002 66.3284C133.696 66.1244 132.365 66.1559 131.071 66.4212C125.721 67.5183 122.123 72.3857 121.441 77.8044C120.965 81.5864 120.068 85.2001 118.751 88.6456Z" fill="#E16036"/>
</svg>
