<svg xmlns="http://www.w3.org/2000/svg" version="1.1" xmlns:xlink="http://www.w3.org/1999/xlink" xmlns:svgjs="http://svgjs.com/svgjs" width="1920" height="560" preserveAspectRatio="none" viewBox="0 0 1920 560"><g mask="url(&quot;#SvgjsMask1011&quot;)" fill="none"><rect width="1920" height="560" x="0" y="0" fill="rgba(255, 255, 255, 1)"></rect><path d="M 0,68 C 76.8,98.2 230.4,230.6 384,219 C 537.6,207.4 614.4,18.2 768,10 C 921.6,1.8 998.4,173.2 1152,178 C 1305.6,182.8 1382.4,20.8 1536,34 C 1689.6,47.2 1843.2,202 1920,244L1920 560L0 560z" fill="rgba(250, 250, 250, 1)"></path><path d="M 0,548 C 128,499.2 384,327.6 640,304 C 896,280.4 1024,407.4 1280,430 C 1536,452.6 1792,419.6 1920,417L1920 560L0 560z" fill="rgba(247, 247, 247, 1)"></path></g><defs><mask id="SvgjsMask1011"><rect width="1920" height="560" fill="#ffffff"></rect></mask></defs></svg>