<svg xmlns="http://www.w3.org/2000/svg" version="1.1" xmlns:xlink="http://www.w3.org/1999/xlink" xmlns:svgjs="http://svgjs.com/svgjs" width="1440" height="720" preserveAspectRatio="none" viewBox="0 0 1440 720"><g mask="url(&quot;#SvgjsMask1029&quot;)" fill="none"><rect width="1440" height="720" x="0" y="0" fill="rgba(250, 250, 250, 1)"></rect><path d="M1560 720L0 720 L0 509.96Q28.13 466.09, 72 494.22Q124.38 426.6, 192 478.97Q234.95 401.93, 312 444.88Q405.92 418.8, 432 512.72Q483.13 443.85, 552 494.98Q604.24 475.22, 624 527.46Q640.55 424.01, 744 440.56Q786.02 410.58, 816 452.6Q858.55 423.15, 888 465.7Q968.34 426.04, 1008 506.39Q1054.35 432.74, 1128 479.09Q1195.05 426.13, 1248 493.18Q1319.42 444.6, 1368 516.02Q1374.67 450.69, 1440 457.36Q1506.31 403.67, 1560 469.97z" fill="rgba(249, 249, 249, 1)"></path><path d="M1512 720L0 720 L0 592.09Q48.74 520.83, 120 569.56Q174.56 504.12, 240 558.67Q312.61 511.28, 360 583.89Q367.73 519.62, 432 527.34Q456.97 480.31, 504 505.27Q556.41 485.68, 576 538.1Q630.83 472.93, 696 527.77Q766.01 525.78, 768 595.8Q818.48 526.28, 888 576.76Q933.61 502.37, 1008 547.98Q1060.66 480.64, 1128 533.31Q1204.6 489.9, 1248 566.5Q1274.44 520.94, 1320 547.39Q1372.57 479.96, 1440 532.54Q1490.1 510.63, 1512 560.73z" fill="rgba(247, 247, 247, 1)"></path><path d="M1536 720L0 720 L0 653.66Q22.07 603.73, 72 625.81Q115.38 597.18, 144 640.56Q151.75 576.31, 216 584.06Q283.71 531.77, 336 599.48Q401.95 545.43, 456 611.38Q512.91 596.29, 528 653.2Q557.95 563.15, 648 593.1Q690.13 563.23, 720 605.35Q765.75 531.1, 840 576.85Q908.95 525.8, 960 594.74Q1026.87 541.61, 1080 608.47Q1145.35 601.82, 1152 667.16Q1182.51 625.67, 1224 656.19Q1263.12 575.31, 1344 614.43Q1368.88 567.31, 1416 592.19Q1495.88 552.07, 1536 631.95z" fill="rgba(250, 250, 250, 1)"></path><path d="M1536 720L0 720 L0 670.27Q90.75 641.01, 120 731.76Q167.13 658.88, 240 706.01Q289.19 635.2, 360 684.4Q415.68 668.08, 432 723.76Q440.36 660.12, 504 668.47Q554.54 599.01, 624 649.56Q675.07 628.63, 696 679.7Q742.62 654.32, 768 700.93Q826.72 687.64, 840 746.36Q856.25 642.61, 960 658.86Q993.86 620.72, 1032 654.58Q1109.76 612.34, 1152 690.09Q1212.43 678.52, 1224 738.94Q1247.83 642.77, 1344 666.59Q1387.9 638.5, 1416 682.4Q1485.49 631.88, 1536 701.37z" fill="white"></path></g><defs><mask id="SvgjsMask1029"><rect width="1440" height="720" fill="#ffffff"></rect></mask></defs></svg>