<?xml version="1.0" encoding="UTF-8"?>
<!DOCTYPE svg PUBLIC "-//W3C//DTD SVG 1.1//EN" "http://www.w3.org/Graphics/SVG/1.1/DTD/svg11.dtd">
<!-- Creator: CorelDRAW X7 -->
<svg xmlns="http://www.w3.org/2000/svg" xml:space="preserve" width="2275px" height="650px" version="1.1" style="shape-rendering:geometricPrecision; text-rendering:geometricPrecision; image-rendering:optimizeQuality; fill-rule:evenodd; clip-rule:evenodd"
viewBox="0 0 5546 1585"
 xmlns:xlink="http://www.w3.org/1999/xlink">
 <defs>
  <style type="text/css">
   <![CDATA[
    .fil2 {fill:#003B93}
    .fil3 {fill:#3372D0}
    .fil0 {fill:#3B3C3D}
    .fil1 {fill:#50504F}
   ]]>
  </style>
 </defs>
 <g id="Layer_x0020_1">
  <metadata id="CorelCorpID_0Corel-Layer"/>
  <g id="_349982189376">
   <g>
    <path class="fil0" d="M1920 775c-75,122 -160,189 -315,189 -205,0 -357,-154 -357,-374 0,-221 162,-375 362,-375 148,0 259,77 308,187l-89 64c-51,-100 -122,-149 -221,-149 -135,0 -247,115 -247,274 0,156 104,274 246,274 96,0 173,-46 227,-149l86 59z"/>
   </g>
   <g>
    <path class="fil0" d="M2250 530c-14,-4 -26,-6 -40,-6 -74,0 -128,67 -128,157l0 269 -105 0 0 -510 105 0 0 86c28,-59 77,-101 148,-101 13,0 24,3 38,6l-18 99z"/>
   </g>
   <g>
    <path class="fil0" d="M2365 717c5,91 65,156 155,156 84,0 122,-45 153,-107l81 49c-47,97 -122,148 -237,148 -140,0 -257,-109 -257,-269 0,-160 117,-270 263,-270 147,0 247,106 247,255l0 37 -405 0 0 1zm0 -80l304 0c-8,-84 -78,-128 -149,-128 -76,0 -135,54 -155,128z"/>
   </g>
   <g>
    <path class="fil0" d="M3338 950l-105 0 0 -83c-33,58 -91,96 -169,96 -140,0 -248,-106 -248,-269 0,-164 119,-270 246,-270 80,0 141,35 171,92l0 -286 105 0 0 720zm-98 -255c0,-103 -71,-173 -159,-173 -89,0 -159,70 -159,173 0,103 70,173 159,173 88,0 159,-70 159,-173z"/>
   </g>
   <g>
    <path class="fil0" d="M3433 240l120 0 0 118 -120 0 0 -118zm7 200l105 0 0 510 -105 0 0 -510z"/>
   </g>
   <g>
    <path class="fil0" d="M3622 440l83 0 0 -139 105 0 0 138 114 0 0 84 -114 0 0 270c0,51 20,75 70,75 11,0 28,-3 38,-7l9 89c-19,7 -46,12 -76,12 -77,0 -146,-35 -146,-151l0 -289 -83 0 0 -82z"/>
   </g>
   <g>
    <path class="fil0" d="M3983 440l77 0 0 -90c0,-108 66,-172 170,-172 19,0 39,4 58,9l-19 91c-12,-5 -23,-6 -34,-6 -43,0 -70,28 -70,80l0 87 116 0 0 84 -116 0 0 426 -105 0 0 -426 -77 0 0 -83zm381 -210l106 0 0 720 -106 0 0 -720z"/>
   </g>
   <g>
    <path class="fil0" d="M4561 440l105 0 0 306c0,80 42,122 113,122 75,0 135,-64 135,-152l0 -276 105 0 0 510 -105 0 0 -83c-33,60 -92,96 -166,96 -99,0 -187,-61 -187,-197l0 -326z"/>
   </g>
   <g>
    <polygon class="fil0" points="5308,595 5407,440 5530,440 5369,676 5546,951 5425,951 5307,762 5189,951 5067,951 5251,679 5089,441 5210,441 "/>
   </g>
   <g>
    <g>
     <path class="fil1" d="M3 1112l101 -48 405 -1009c13,-32 -18,-65 -51,-52l-387 145 24 15 0 0c0,0 37,22 96,59l152 -57 -340 947z"/>
    </g>
    <path class="fil1" d="M1010 727l-905 -558 -10 -5 0 0 -24 -15 -27 10 -6 2c-14,7 -25,17 -30,30l0 0 0 0c-15,26 -9,63 20,83l5 4 0 0 696 486 -725 348c-6,18 1,37 17,46 1,0 1,1 2,1 15,9 33,10 50,4 101,-35 666,-230 926,-319 50,-18 58,-89 11,-117z"/>
   </g>
   <g>
    <path class="fil1" d="M1259 1511l97 -242 37 0 98 242 -40 0 -25 -68 -101 0 -26 68 -40 0zm116 -200c-2,7 -4,15 -7,24l-30 77 77 0 -30 -77 -10 -24z"/>
    <path class="fil1" d="M1669 1395l0 117 -35 0 0 -106c0,-12 -4,-21 -10,-28 -7,-7 -16,-10 -28,-10 -13,0 -24,5 -33,15 -9,10 -13,22 -13,39l0 90 -35 0 0 -173 36 0 0 29c7,-10 14,-18 25,-25 10,-5 21,-8 33,-8 18,0 31,5 44,15 11,11 16,26 16,45z"/>
    <path class="fil1" d="M1791 1511l98 -242 37 0 97 242 -39 0 -26 -68 -101 0 -25 68 -41 0zm117 -200c-3,7 -5,15 -8,24l-29 77 76 0 -29 -77 -10 -24z"/>
    <path class="fil1" d="M2174 1449l28 17c-17,34 -44,50 -80,50 -25,0 -47,-9 -63,-26 -17,-17 -26,-39 -26,-66 0,-27 9,-48 26,-65 18,-17 38,-26 62,-26 19,0 35,5 48,13 14,8 24,20 29,34l-28 19c-11,-22 -26,-32 -49,-32 -15,0 -28,6 -38,16 -10,10 -15,24 -15,42 0,18 4,33 14,43 10,10 22,15 38,15 12,0 22,-3 30,-9 10,-5 17,-13 24,-25z"/>
    <path class="fil1" d="M2230 1450l0 -111 36 0 0 104c0,13 3,23 10,30 6,7 15,10 28,10 13,0 23,-4 32,-14 9,-10 13,-23 13,-37l0 -93 36 0 0 172 -36 0 0 -28c-12,21 -30,33 -56,33 -17,0 -33,-6 -44,-17 -14,-11 -19,-27 -19,-49z"/>
    <path class="fil1" d="M2525 1336l-6 33c-4,-1 -9,-2 -13,-2 -12,0 -22,6 -31,14 -8,11 -13,23 -13,39l0 90 -35 0 0 -171 35 0 0 29c11,-22 27,-33 51,-33 2,0 6,0 12,1z"/>
    <path class="fil1" d="M2545 1312l0 -40 40 0 0 40 -40 0zm3 199l0 -172 36 0 0 172 -36 0z"/>
    <path class="fil1" d="M2656 1380c0,7 3,13 11,17 7,5 18,8 32,10 21,5 35,10 44,18 9,8 15,19 15,34 0,15 -6,29 -18,40 -13,11 -28,16 -50,16 -19,0 -35,-5 -48,-15 -13,-9 -22,-21 -28,-37l29 -18c11,26 26,39 47,39 9,0 17,-2 24,-6 7,-5 9,-10 9,-18 0,-7 -3,-13 -9,-17 -7,-4 -17,-8 -31,-10 -40,-8 -59,-26 -59,-53 0,-14 6,-26 18,-34 13,-9 27,-14 44,-14 18,0 32,4 44,10 11,7 20,18 25,33l-25 15c-5,-10 -10,-17 -17,-22 -8,-6 -16,-8 -25,-8 -8,0 -15,2 -21,6 -8,4 -11,9 -11,14z"/>
    <path class="fil1" d="M3021 1449l28 17c-16,34 -43,50 -79,50 -26,0 -47,-9 -64,-26 -17,-17 -25,-39 -25,-66 0,-27 8,-48 25,-65 18,-17 38,-26 63,-26 19,0 35,5 48,13 13,8 23,20 29,34l-28 19c-11,-22 -27,-32 -49,-32 -16,0 -28,6 -38,16 -10,10 -16,24 -16,42 0,18 5,33 15,43 10,10 22,15 38,15 12,0 22,-3 30,-9 10,-5 17,-13 23,-25z"/>
    <path class="fil1" d="M3237 1376c9,14 14,30 14,49 0,19 -5,36 -14,49 -9,15 -21,25 -34,32 -14,6 -28,10 -44,10 -25,0 -46,-8 -64,-25 -18,-16 -28,-38 -28,-67 0,-28 9,-50 28,-67 18,-16 41,-25 64,-25 16,0 30,4 44,10 14,9 25,19 34,34zm-117 92c11,11 24,16 39,16 15,0 29,-5 39,-16 11,-12 17,-25 17,-43 0,-17 -6,-31 -17,-42 -11,-12 -24,-17 -39,-17 -15,0 -29,5 -39,17 -11,11 -17,24 -17,42 0,18 6,31 17,43z"/>
    <path class="fil1" d="M3526 1385l0 126 -36 0 0 -114c0,-21 -10,-32 -30,-32 -11,0 -20,4 -27,12 -7,9 -11,21 -11,38l0 95 -36 0 0 -113c0,-10 -2,-18 -8,-23 -4,-6 -12,-9 -21,-9 -11,0 -20,4 -28,13 -8,9 -11,21 -11,38l0 95 -36 0 0 -172 36 0 0 25c5,-9 12,-17 21,-22 9,-5 19,-7 29,-7 24,0 39,10 47,30 12,-20 30,-30 55,-30 17,0 29,4 39,13 11,10 17,22 17,37z"/>
    <path class="fil1" d="M3568 1583l0 -244 36 0 0 27c6,-9 15,-17 25,-23 11,-5 23,-8 35,-8 23,0 42,7 57,24 16,17 24,38 24,66 0,27 -8,49 -24,66 -15,17 -35,25 -59,25 -12,0 -23,-3 -33,-8 -10,-6 -18,-12 -25,-21l0 95 -36 0 0 1zm124 -199c-10,-11 -22,-17 -38,-17 -14,0 -28,6 -38,17 -10,11 -15,24 -15,41 0,17 5,31 15,41 10,12 24,17 38,17 15,0 28,-5 38,-17 10,-11 16,-24 16,-41 0,-17 -4,-30 -16,-41z"/>
    <path class="fil1" d="M3929 1511l-35 0c-6,-7 -9,-17 -10,-30 -12,23 -31,35 -57,35 -18,0 -32,-5 -43,-15 -11,-10 -17,-22 -17,-38 0,-17 6,-29 17,-38 11,-9 26,-16 44,-18l55 -9 0 -6c0,-21 -13,-31 -36,-31 -13,0 -22,3 -27,7 -6,5 -9,10 -9,16 0,2 0,3 1,5l-31 10c-2,-4 -2,-9 -2,-13 0,-15 6,-26 19,-36 12,-10 29,-14 50,-14 23,0 41,4 54,14 12,10 17,25 17,44l0 76c0,15 4,30 10,41zm-96 -24c16,0 28,-6 37,-17 9,-11 15,-25 15,-42l0 -4 -47 8c-23,3 -34,13 -34,29 0,8 2,13 8,19 6,4 12,7 21,7z"/>
    <path class="fil1" d="M4117 1395l0 117 -35 0 0 -106c0,-12 -4,-21 -10,-28 -7,-7 -16,-10 -28,-10 -13,0 -24,5 -33,15 -9,10 -13,22 -13,39l0 90 -36 0 0 -173 36 0 0 29c6,-10 14,-18 24,-25 10,-5 22,-8 34,-8 18,0 31,5 43,15 13,11 18,26 18,45z"/>
    <path class="fil1" d="M4152 1581l6 -33c5,2 11,3 15,3 5,0 9,-1 13,-3 3,-2 5,-8 9,-14l7 -22 -70 -173 40 0 48 124 48 -124 39 0 -82 207c-10,26 -27,39 -48,39 -9,0 -17,-1 -25,-4z"/>
   </g>
   <g>
    <path class="fil2" d="M3 1112l101 -48 405 -1009c13,-32 -18,-65 -51,-52l-387 145 24 15 0 0c0,0 37,22 96,59l152 -57 -340 947z"/>
   </g>
   <path class="fil3" d="M1010 727l-905 -558 -10 -5 0 0 -24 -15 -27 10 -6 2c-14,7 -25,17 -30,30l0 0 0 0c-15,26 -9,63 20,83l5 4 0 0 696 486 -725 348c-6,18 1,37 17,46 1,0 1,1 2,1 15,9 33,10 50,4 101,-35 666,-230 926,-319 50,-18 58,-89 11,-117z"/>
   <g>
    <g>
     <path class="fil0" d="M1259 1511l97 -242 37 0 98 242 -40 0 -25 -68 -101 0 -26 68 -40 0zm116 -200c-2,7 -4,15 -7,24l-30 77 77 0 -30 -77 -10 -24z"/>
     <path class="fil0" d="M1669 1395l0 117 -35 0 0 -106c0,-12 -4,-21 -10,-28 -7,-7 -16,-10 -28,-10 -13,0 -24,5 -33,15 -9,10 -13,22 -13,39l0 90 -35 0 0 -173 36 0 0 29c7,-10 14,-18 25,-25 10,-5 21,-8 33,-8 18,0 31,5 44,15 11,11 16,26 16,45z"/>
     <path class="fil0" d="M1791 1511l98 -242 37 0 97 242 -39 0 -26 -68 -101 0 -25 68 -41 0zm117 -200c-3,7 -5,15 -8,24l-29 77 76 0 -29 -77 -10 -24z"/>
     <path class="fil0" d="M2174 1449l28 17c-17,34 -44,50 -80,50 -25,0 -47,-9 -63,-26 -17,-17 -26,-39 -26,-66 0,-27 9,-48 26,-65 18,-17 38,-26 62,-26 19,0 35,5 48,13 14,8 24,20 29,34l-28 19c-11,-22 -26,-32 -49,-32 -15,0 -28,6 -38,16 -10,10 -15,24 -15,42 0,18 4,33 14,43 10,10 22,15 38,15 12,0 22,-3 30,-9 10,-5 17,-13 24,-25z"/>
     <path class="fil0" d="M2230 1450l0 -111 36 0 0 104c0,13 3,23 10,30 6,7 15,10 28,10 13,0 23,-4 32,-14 9,-10 13,-23 13,-37l0 -93 36 0 0 172 -36 0 0 -28c-12,21 -30,33 -56,33 -17,0 -33,-6 -44,-17 -14,-11 -19,-27 -19,-49z"/>
     <path class="fil0" d="M2525 1336l-6 33c-4,-1 -9,-2 -13,-2 -12,0 -22,6 -31,14 -8,11 -13,23 -13,39l0 90 -35 0 0 -171 35 0 0 29c11,-22 27,-33 51,-33 2,0 6,0 12,1z"/>
     <path class="fil0" d="M2545 1312l0 -40 40 0 0 40 -40 0zm3 199l0 -172 36 0 0 172 -36 0z"/>
     <path class="fil0" d="M2656 1380c0,7 3,13 11,17 7,5 18,8 32,10 21,5 35,10 44,18 9,8 15,19 15,34 0,15 -6,29 -18,40 -13,11 -28,16 -50,16 -19,0 -35,-5 -48,-15 -13,-9 -22,-21 -28,-37l29 -18c11,26 26,39 47,39 9,0 17,-2 24,-6 7,-5 9,-10 9,-18 0,-7 -3,-13 -9,-17 -7,-4 -17,-8 -31,-10 -40,-8 -59,-26 -59,-53 0,-14 6,-26 18,-34 13,-9 27,-14 44,-14 18,0 32,4 44,10 11,7 20,18 25,33l-25 15c-5,-10 -10,-17 -17,-22 -8,-6 -16,-8 -25,-8 -8,0 -15,2 -21,6 -8,4 -11,9 -11,14z"/>
     <path class="fil0" d="M3021 1449l28 17c-16,34 -43,50 -79,50 -26,0 -47,-9 -64,-26 -17,-17 -25,-39 -25,-66 0,-27 8,-48 25,-65 18,-17 38,-26 63,-26 19,0 35,5 48,13 13,8 23,20 29,34l-28 19c-11,-22 -27,-32 -49,-32 -16,0 -28,6 -38,16 -10,10 -16,24 -16,42 0,18 5,33 15,43 10,10 22,15 38,15 12,0 22,-3 30,-9 10,-5 17,-13 23,-25z"/>
     <path class="fil0" d="M3237 1376c9,14 14,30 14,49 0,19 -5,36 -14,49 -9,15 -21,25 -34,32 -14,6 -28,10 -44,10 -25,0 -46,-8 -64,-25 -18,-16 -28,-38 -28,-67 0,-28 9,-50 28,-67 18,-16 41,-25 64,-25 16,0 30,4 44,10 14,9 25,19 34,34zm-117 92c11,11 24,16 39,16 15,0 29,-5 39,-16 11,-12 17,-25 17,-43 0,-17 -6,-31 -17,-42 -11,-12 -24,-17 -39,-17 -15,0 -29,5 -39,17 -11,11 -17,24 -17,42 0,18 6,31 17,43z"/>
     <path class="fil0" d="M3526 1385l0 126 -36 0 0 -114c0,-21 -10,-32 -30,-32 -11,0 -20,4 -27,12 -7,9 -11,21 -11,38l0 95 -36 0 0 -113c0,-10 -2,-18 -8,-23 -4,-6 -12,-9 -21,-9 -11,0 -20,4 -28,13 -8,9 -11,21 -11,38l0 95 -36 0 0 -172 36 0 0 25c5,-9 12,-17 21,-22 9,-5 19,-7 29,-7 24,0 39,10 47,30 12,-20 30,-30 55,-30 17,0 29,4 39,13 11,10 17,22 17,37z"/>
     <path class="fil0" d="M3568 1583l0 -244 36 0 0 27c6,-9 15,-17 25,-23 11,-5 23,-8 35,-8 23,0 42,7 57,24 16,17 24,38 24,66 0,27 -8,49 -24,66 -15,17 -35,25 -59,25 -12,0 -23,-3 -33,-8 -10,-6 -18,-12 -25,-21l0 95 -36 0 0 1zm124 -199c-10,-11 -22,-17 -38,-17 -14,0 -28,6 -38,17 -10,11 -15,24 -15,41 0,17 5,31 15,41 10,12 24,17 38,17 15,0 28,-5 38,-17 10,-11 16,-24 16,-41 0,-17 -4,-30 -16,-41z"/>
     <path class="fil0" d="M3929 1511l-35 0c-6,-7 -9,-17 -10,-30 -12,23 -31,35 -57,35 -18,0 -32,-5 -43,-15 -11,-10 -17,-22 -17,-38 0,-17 6,-29 17,-38 11,-9 26,-16 44,-18l55 -9 0 -6c0,-21 -13,-31 -36,-31 -13,0 -22,3 -27,7 -6,5 -9,10 -9,16 0,2 0,3 1,5l-31 10c-2,-4 -2,-9 -2,-13 0,-15 6,-26 19,-36 12,-10 29,-14 50,-14 23,0 41,4 54,14 12,10 17,25 17,44l0 76c0,15 4,30 10,41zm-96 -24c16,0 28,-6 37,-17 9,-11 15,-25 15,-42l0 -4 -47 8c-23,3 -34,13 -34,29 0,8 2,13 8,19 6,4 12,7 21,7z"/>
     <path class="fil0" d="M4117 1395l0 117 -35 0 0 -106c0,-12 -4,-21 -10,-28 -7,-7 -16,-10 -28,-10 -13,0 -24,5 -33,15 -9,10 -13,22 -13,39l0 90 -36 0 0 -173 36 0 0 29c6,-10 14,-18 24,-25 10,-5 22,-8 34,-8 18,0 31,5 43,15 13,11 18,26 18,45z"/>
     <path class="fil0" d="M4152 1581l6 -33c5,2 11,3 15,3 5,0 9,-1 13,-3 3,-2 5,-8 9,-14l7 -22 -70 -173 40 0 48 124 48 -124 39 0 -82 207c-10,26 -27,39 -48,39 -9,0 -17,-1 -25,-4z"/>
    </g>
   </g>
  </g>
 </g>
</svg>
