<svg id="Layer_1" data-name="Layer 1" xmlns="http://www.w3.org/2000/svg" viewBox="0 0 2109.1 601.9"><defs><style>.cls-1{fill:#0a2240;}.cls-2{fill:#7cbec0;}</style></defs><path class="cls-1" d="M140,461.6V188.4h61.9V461.6Z"/><path class="cls-1" d="M265,461.6V97.8h61.8V461.6Z"/><path class="cls-1" d="M491.9,465.1c-15.7,0-31.9-2-41-5.5v111H389.6V203.1c20.7-11.2,51.1-19.8,94.7-19.8,79.6,0,127.8,51.2,127.8,138.4C612.1,410.9,563.4,465.1,491.9,465.1Zm-9.1-244.8c-13.7,0-23.3,2-31.9,5.6V423.6c7.1,3,16.2,4.5,27.4,4.5,48.6,0,72.4-38,72.4-104.4S533,220.3,482.8,220.3Z"/><path class="cls-1" d="M753.1,466.7c-74.5,0-111.5-30.5-111.5-83.2,0-71.9,69.5-92.7,152.6-100.8V268c0-35.5-22.3-45.1-54.2-45.1-26.4,0-51.7,8.6-68.5,16.7l-14.2-35.5c17.8-8.6,50.7-20.8,93.8-20.8,56.3,0,100.9,23.8,100.9,94.3V446.9C830.2,458.6,795.7,466.7,753.1,466.7Zm41.1-154.6c-58.3,7.1-94.3,19.7-94.3,69.4,0,35.5,21.3,50.7,57.3,50.7,14.2,0,27.9-3.1,37-7.6Z"/><path class="cls-2" d="M471.1,90.2a272.8,272.8,0,0,0-272.7-44,35.1,35.1,0,0,0-62.9,21.5,34.1,34.1,0,0,0,2,11.6C62.1,133.9,16.3,225.5,25,324.8c12.4,142,132,249.4,272,249.4,8,0,16-.3,24.1-1l-1.4-15C177.7,570.6,52.4,465.3,40,323.5,31.8,230,74.7,143.7,145.4,92.1a35.1,35.1,0,0,0,60.4-24.4,34.2,34.2,0,0,0-.9-7.9,258.3,258.3,0,0,1,256.7,41.9,264.8,264.8,0,0,1,32.4,32l11.5-9.7A274.6,274.6,0,0,0,471.1,90.2Z"/><path class="cls-1" d="M1004.3,357.2V291.6h16v51.8h25.4v13.8Z"/><path class="cls-1" d="M1067,357.2V291.6h15.9v65.6Z"/><path class="cls-1" d="M1169.8,357.2l.4-46.4h-.3l-17,46.4h-11.2l-16.5-46.4h-.3l.3,46.4h-14.9V291.6h22.6l14.9,42.1h.4l14.3-42.1h22.9v65.6Z"/><path class="cls-1" d="M1212.7,357.2V291.6h16v65.6Z"/><path class="cls-1" d="M1284.2,305.2v52h-15.9v-52h-18.5V291.6h52.9v13.6Z"/><path class="cls-1" d="M1323.8,357.2V291.6h44.1V305h-28.8v12.4h27.3v12.7h-27.3v13.6h30.5v13.5Z"/><path class="cls-1" d="M1455.2,324.2c0,5.8-1,10.7-3.2,14.9a29.3,29.3,0,0,1-8.4,10.3,33.6,33.6,0,0,1-11.8,5.9,46.5,46.5,0,0,1-13.3,1.9H1394V291.6h23.7a63.3,63.3,0,0,1,13.7,1.6,35,35,0,0,1,12.1,5.4,28.2,28.2,0,0,1,8.5,10.1C1454.2,312.9,1455.2,318.1,1455.2,324.2Zm-16.5,0a21,21,0,0,0-1.8-9.2,15.3,15.3,0,0,0-4.8-5.8,18.3,18.3,0,0,0-6.8-3.1,35,35,0,0,0-8-.9h-7.8v38.3h7.5a32.3,32.3,0,0,0,8.2-1,18.2,18.2,0,0,0,6.9-3.2,14.9,14.9,0,0,0,4.8-5.9A21,21,0,0,0,1438.7,324.2Z"/><path class="cls-1" d="M1566.4,311.8a20.2,20.2,0,0,1-2.1,9.7,17.6,17.6,0,0,1-5.7,6.4,26.5,26.5,0,0,1-8.4,3.5,44.6,44.6,0,0,1-9.8,1.1h-7.9v24.7h-15.8V291.6h24.1a45.1,45.1,0,0,1,10,1.1,23.3,23.3,0,0,1,8.2,3.4,18.3,18.3,0,0,1,5.5,6.2A21.2,21.2,0,0,1,1566.4,311.8Zm-15.8.1a7.4,7.4,0,0,0-.9-3.8,6.9,6.9,0,0,0-2.5-2.3,10.8,10.8,0,0,0-3.6-1.1,27.3,27.3,0,0,0-4.1-.3h-7v15.5h6.7a20.2,20.2,0,0,0,4.3-.4,11.1,11.1,0,0,0,3.6-1.3,6.7,6.7,0,0,0,2.6-2.4A7.8,7.8,0,0,0,1550.6,311.9Z"/><path class="cls-1" d="M1628.8,357.2l-5.1-12.9h-25.4l-4.8,12.9h-17.2l27.5-65.6h15.4l27.2,65.6Zm-17.6-48.1-8.3,22.6h16.5Z"/><path class="cls-1" d="M1700.9,357.2l-14.2-26h-5.4v26h-15.5V291.6h25a39.9,39.9,0,0,1,9.2,1,22.3,22.3,0,0,1,8.1,3.3,16.7,16.7,0,0,1,5.7,6.1,19.4,19.4,0,0,1,2.1,9.5,17.7,17.7,0,0,1-3.6,11.2,19.7,19.7,0,0,1-10,6.5l17.1,28Zm-.6-45.5a6.7,6.7,0,0,0-1-3.7,6.5,6.5,0,0,0-2.5-2.2,10.2,10.2,0,0,0-3.5-1.1l-3.7-.3h-8.4v15.3h7.5l4-.3a10.7,10.7,0,0,0,3.7-1.2,6,6,0,0,0,2.8-2.4A7.1,7.1,0,0,0,1700.3,311.7Z"/><path class="cls-1" d="M1768.1,305.2v52h-15.9v-52h-18.5V291.6h52.9v13.6Z"/><path class="cls-1" d="M1849.5,357.2,1823,314.3h-.2l.3,42.9h-15.3V291.6h18l26.3,42.8h.3l-.3-42.8h15.3v65.6Z"/><path class="cls-1" d="M1894.9,357.2V291.6H1939V305h-28.8v12.4h27.2v12.7h-27.2v13.6h30.4v13.5Z"/><path class="cls-1" d="M2000.1,357.2l-14.2-26h-5.4v26H1965V291.6h25a40.8,40.8,0,0,1,9.3,1,22.6,22.6,0,0,1,8,3.3,16.7,16.7,0,0,1,5.7,6.1,19.4,19.4,0,0,1,2.1,9.5,17.7,17.7,0,0,1-3.6,11.2,19.7,19.7,0,0,1-10,6.5l17.2,28Zm-.6-45.5a6,6,0,0,0-1-3.7,5.9,5.9,0,0,0-2.5-2.2,9.6,9.6,0,0,0-3.5-1.1l-3.6-.3h-8.5v15.3h7.5a26.9,26.9,0,0,0,4-.3,12.1,12.1,0,0,0,3.8-1.2,6.2,6.2,0,0,0,2.7-2.4A7.1,7.1,0,0,0,1999.5,311.7Z"/><path class="cls-1" d="M2075,308.7a14,14,0,0,0-5.3-4.2,15.3,15.3,0,0,0-6.4-1.5l-3.2.3a7.9,7.9,0,0,0-2.9,1.1,7,7,0,0,0-2.2,2,5.3,5.3,0,0,0-.8,3.2,5.1,5.1,0,0,0,.7,2.8,5.3,5.3,0,0,0,2,1.9,19.1,19.1,0,0,0,3.2,1.6l4.2,1.4,6.9,2.4a26.4,26.4,0,0,1,6.6,3.6,18.5,18.5,0,0,1,4.9,5.5,16.1,16.1,0,0,1,1.9,8.2,22.5,22.5,0,0,1-2,9.8,19.7,19.7,0,0,1-5.6,6.8,25.6,25.6,0,0,1-8.1,4,32.8,32.8,0,0,1-9.4,1.3,37.2,37.2,0,0,1-13.6-2.5,27.4,27.4,0,0,1-10.9-7l10.4-10.5a18.4,18.4,0,0,0,6.3,4.9,16.2,16.2,0,0,0,7.8,2,20.7,20.7,0,0,0,3.5-.3,12.6,12.6,0,0,0,2.9-1.2,6.4,6.4,0,0,0,2-2.3,6.7,6.7,0,0,0,.7-3.3,5.7,5.7,0,0,0-.9-3.2,9,9,0,0,0-2.7-2.3,20.6,20.6,0,0,0-4.2-2l-5.8-1.9a36.1,36.1,0,0,1-6.2-2.4,19.5,19.5,0,0,1-5.3-3.5,16.6,16.6,0,0,1-3.8-5.3,17.5,17.5,0,0,1-1.5-7.6,19.4,19.4,0,0,1,2.2-9.3,19.1,19.1,0,0,1,5.9-6.4,24.9,24.9,0,0,1,8.1-3.7,36.2,36.2,0,0,1,9.2-1.1,33.4,33.4,0,0,1,11.4,2,31.1,31.1,0,0,1,10.1,6Z"/><path class="cls-1" d="M1006,461.3h-8.1l22.4-51.6h6.6l22.2,51.6h-8.2l-5.3-12.7h-24.5Zm7.7-19H1033l-9.6-24.2Z"/><path class="cls-1" d="M1104,419.2a11.5,11.5,0,0,0-4.1-3.4,13.3,13.3,0,0,0-6-1.4,14.8,14.8,0,0,0-3.5.5,8.6,8.6,0,0,0-3.2,1.5,7.8,7.8,0,0,0-2.4,2.7,7.2,7.2,0,0,0-.9,3.7,8,8,0,0,0,.8,3.6,8.7,8.7,0,0,0,2.3,2.4,12.7,12.7,0,0,0,3.3,1.6l4.2,1.5,5.3,1.8a21.2,21.2,0,0,1,4.9,2.7,14.8,14.8,0,0,1,3.6,4.2,13.5,13.5,0,0,1,1.3,6.4,14.9,14.9,0,0,1-1.5,6.9,14.6,14.6,0,0,1-3.9,4.9,16.7,16.7,0,0,1-5.8,2.9,24.5,24.5,0,0,1-6.6,1,26,26,0,0,1-9.5-1.9,19.2,19.2,0,0,1-7.5-5.7l5.6-4.7a13.1,13.1,0,0,0,4.9,4.4,13.5,13.5,0,0,0,6.6,1.7,12.4,12.4,0,0,0,3.7-.6,8.4,8.4,0,0,0,3.3-1.6,7.8,7.8,0,0,0,2.4-2.7,7.2,7.2,0,0,0,1-4,8.1,8.1,0,0,0-1-3.9,9.6,9.6,0,0,0-2.7-2.6,14.2,14.2,0,0,0-3.9-1.9l-4.7-1.6a48.4,48.4,0,0,1-4.9-1.8,17.3,17.3,0,0,1-4.3-2.7,13.8,13.8,0,0,1-3.1-4,15,15,0,0,1-1.1-6,12.4,12.4,0,0,1,1.6-6.6,13.7,13.7,0,0,1,4-4.6,18.7,18.7,0,0,1,5.7-2.7,23.4,23.4,0,0,1,6.4-.8,21.8,21.8,0,0,1,8.5,1.6,16,16,0,0,1,6.3,4.3Z"/><path class="cls-1" d="M1168.2,419.2a11.9,11.9,0,0,0-4.2-3.4,12.8,12.8,0,0,0-5.9-1.4,14.9,14.9,0,0,0-3.6.5,10.4,10.4,0,0,0-3.2,1.5,7.8,7.8,0,0,0-2.4,2.7,7.2,7.2,0,0,0-.9,3.7,6.9,6.9,0,0,0,.9,3.6,8.3,8.3,0,0,0,2.2,2.4,15.3,15.3,0,0,0,3.4,1.6l4.1,1.5,5.3,1.8a19.3,19.3,0,0,1,4.9,2.7,12.2,12.2,0,0,1,3.6,4.2,13.5,13.5,0,0,1,1.4,6.4,14.9,14.9,0,0,1-1.5,6.9,13.7,13.7,0,0,1-4,4.9,17.1,17.1,0,0,1-5.7,2.9,25.3,25.3,0,0,1-6.7,1,26,26,0,0,1-9.5-1.9,19.2,19.2,0,0,1-7.5-5.7l5.6-4.7a13.9,13.9,0,0,0,4.9,4.4,14.1,14.1,0,0,0,6.6,1.7,11.5,11.5,0,0,0,3.7-.6,8.4,8.4,0,0,0,3.3-1.6,9.3,9.3,0,0,0,2.5-2.7,8.2,8.2,0,0,0,.9-4,7.1,7.1,0,0,0-1-3.9,8.1,8.1,0,0,0-2.6-2.6,17.6,17.6,0,0,0-3.9-1.9l-4.8-1.6-4.8-1.8a15.7,15.7,0,0,1-4.3-2.7,12.3,12.3,0,0,1-3.1-4,13.4,13.4,0,0,1-1.2-6,12.4,12.4,0,0,1,1.6-6.6,13,13,0,0,1,4.1-4.6,18.7,18.7,0,0,1,5.7-2.7,22.9,22.9,0,0,1,6.4-.8,21.3,21.3,0,0,1,8.4,1.6,16.4,16.4,0,0,1,6.4,4.3Z"/><path class="cls-1" d="M1258.7,435.4a28,28,0,0,1-2.1,11,25.2,25.2,0,0,1-14.4,14.2,27.9,27.9,0,0,1-10.9,2.1,27.5,27.5,0,0,1-10.9-2.1,25.5,25.5,0,0,1-8.7-5.6,25.9,25.9,0,0,1-5.7-8.6,31.3,31.3,0,0,1,0-22,24.6,24.6,0,0,1,14.4-14.1,29.4,29.4,0,0,1,10.9-1.9,29.7,29.7,0,0,1,10.9,1.9,25.8,25.8,0,0,1,8.7,5.5,25.4,25.4,0,0,1,5.7,8.6A28,28,0,0,1,1258.7,435.4Zm-7.8,0a24,24,0,0,0-1.4-8,19.9,19.9,0,0,0-3.9-6.6,17.1,17.1,0,0,0-6.2-4.4,20.1,20.1,0,0,0-16.2,0,16.8,16.8,0,0,0-6.1,4.4,19.9,19.9,0,0,0-3.9,6.6,24,24,0,0,0-1.4,8,23.8,23.8,0,0,0,1.4,8.1,18.1,18.1,0,0,0,3.9,6.6,18.7,18.7,0,0,0,6.2,4.5,20,20,0,0,0,8,1.6,21.7,21.7,0,0,0,8.1-1.6,18.7,18.7,0,0,0,6.2-4.5,18.1,18.1,0,0,0,3.9-6.6A23.8,23.8,0,0,0,1250.9,435.4Z"/><path class="cls-1" d="M1335.5,453.3a24.2,24.2,0,0,1-8,6.8,25,25,0,0,1-11.7,2.6,27.5,27.5,0,0,1-10.9-2.1,25.4,25.4,0,0,1-14.3-14.2,28,28,0,0,1-2-11,29.9,29.9,0,0,1,2-11,25.6,25.6,0,0,1,5.8-8.6,28,28,0,0,1,8.7-5.5,30.3,30.3,0,0,1,11-1.9,24.4,24.4,0,0,1,5.3.5,23.8,23.8,0,0,1,5.2,1.5,24.6,24.6,0,0,1,4.5,2.5,16.6,16.6,0,0,1,3.5,3.5l-5.7,4.4a14.1,14.1,0,0,0-5.4-4.4,17.1,17.1,0,0,0-7.4-1.7,19.4,19.4,0,0,0-8.2,1.7,16.8,16.8,0,0,0-6.1,4.4,20.1,20.1,0,0,0-4,6.6,24.1,24.1,0,0,0,0,16.2,19.9,19.9,0,0,0,3.9,6.6,16,16,0,0,0,6.1,4.4,19.1,19.1,0,0,0,8,1.6,18.8,18.8,0,0,0,8-1.7,15.3,15.3,0,0,0,5.9-5.1Z"/><path class="cls-1" d="M1372.7,461.3h-7.2V409.7h7.2Z"/><path class="cls-1" d="M1410,461.3h-8.1l22.5-51.6h6.5l22.2,51.6h-8.2l-5.2-12.7h-24.5Zm7.7-19H1437l-9.6-24.2Z"/><path class="cls-1" d="M1496.1,461.3h-7.2V416h-16.6v-6.3h40.3V416h-16.5Z"/><path class="cls-1" d="M1549.4,461.3h-7.3V409.7h7.3Z"/><path class="cls-1" d="M1636.6,435.4a28,28,0,0,1-2.1,11,25.2,25.2,0,0,1-14.4,14.2,27.9,27.9,0,0,1-10.9,2.1,27.5,27.5,0,0,1-10.9-2.1,25.5,25.5,0,0,1-8.7-5.6,25.9,25.9,0,0,1-5.7-8.6,31.3,31.3,0,0,1,0-22,24.6,24.6,0,0,1,14.4-14.1,29.4,29.4,0,0,1,10.9-1.9,29.7,29.7,0,0,1,10.9,1.9,25.8,25.8,0,0,1,8.7,5.5,25.4,25.4,0,0,1,5.7,8.6A28,28,0,0,1,1636.6,435.4Zm-7.8,0a24,24,0,0,0-1.4-8,19.9,19.9,0,0,0-3.9-6.6,17.1,17.1,0,0,0-6.2-4.4,20.1,20.1,0,0,0-16.2,0,16.8,16.8,0,0,0-6.1,4.4,19.9,19.9,0,0,0-3.9,6.6,24,24,0,0,0-1.4,8,23.8,23.8,0,0,0,1.4,8.1,18.1,18.1,0,0,0,3.9,6.6,18.7,18.7,0,0,0,6.2,4.5,20,20,0,0,0,8,1.6,21.3,21.3,0,0,0,8.1-1.6,18.7,18.7,0,0,0,6.2-4.5,18.1,18.1,0,0,0,3.9-6.6A23.8,23.8,0,0,0,1628.8,435.4Z"/><path class="cls-1" d="M1705.5,451h.1V409.7h7.3v51.6h-9.1l-27.3-42.1h-.2v42.1h-7.2V409.7h9.4Z"/><path class="cls-1" d="M1011.1,240.2h-7.3V188.5h7.3Z"/><path class="cls-1" d="M1074.7,229.8h.1V188.5h7.3v51.7h-9.2L1045.6,198h-.1v42.2h-7.2V188.5h9.4Z"/><path class="cls-1" d="M1135,198.1a12.1,12.1,0,0,0-4.2-3.5,12.8,12.8,0,0,0-5.9-1.3,14.7,14.7,0,0,0-3.6.4,10.7,10.7,0,0,0-3.2,1.6,7.5,7.5,0,0,0-2.4,2.6,7.2,7.2,0,0,0-.9,3.7,6.6,6.6,0,0,0,.9,3.6,8.3,8.3,0,0,0,2.2,2.4,15.4,15.4,0,0,0,3.4,1.7l4.1,1.4,5.3,1.8a19.3,19.3,0,0,1,4.9,2.7,12.2,12.2,0,0,1,3.6,4.2,13.5,13.5,0,0,1,1.4,6.4,15.4,15.4,0,0,1-1.5,7,14.6,14.6,0,0,1-4,4.9,18.9,18.9,0,0,1-5.7,2.8,21.8,21.8,0,0,1-6.7,1,24.1,24.1,0,0,1-9.5-1.9,19,19,0,0,1-7.5-5.6l5.6-4.8a13.9,13.9,0,0,0,4.9,4.4,14.1,14.1,0,0,0,6.6,1.7,15,15,0,0,0,3.7-.5,12.6,12.6,0,0,0,3.3-1.6,11.2,11.2,0,0,0,2.5-2.8,8,8,0,0,0,.9-3.9,6.7,6.7,0,0,0-1-3.9,7.5,7.5,0,0,0-2.6-2.7,23.5,23.5,0,0,0-3.9-1.9l-4.8-1.5a46.8,46.8,0,0,1-4.8-1.8,15.7,15.7,0,0,1-4.3-2.7,12.7,12.7,0,0,1-3.1-4.1,13.4,13.4,0,0,1-1.2-6,12.7,12.7,0,0,1,1.6-6.6,13.9,13.9,0,0,1,4.1-4.6,18.7,18.7,0,0,1,5.7-2.7,27.4,27.4,0,0,1,6.4-.8,21.3,21.3,0,0,1,8.4,1.6,17.6,17.6,0,0,1,6.4,4.3Z"/><path class="cls-1" d="M1182.4,240.2h-7.2V194.9h-16.6v-6.4H1199v6.4h-16.6Z"/><path class="cls-1" d="M1227.7,240.2h-7.2V188.5h7.2Z"/><path class="cls-1" d="M1273,240.2h-7.2V194.9h-16.6v-6.4h40.4v6.4H1273Z"/><path class="cls-1" d="M1330.8,241.5a22.1,22.1,0,0,1-8.9-1.7,19.7,19.7,0,0,1-6.3-4.6,20,20,0,0,1-3.7-6.5,24.6,24.6,0,0,1-1.2-7.6V188.5h7.3v32.1a22.4,22.4,0,0,0,.6,5.2,14.5,14.5,0,0,0,2.2,4.7,12.7,12.7,0,0,0,3.9,3.3,13.8,13.8,0,0,0,6.1,1.2,14.1,14.1,0,0,0,6.1-1.2,12.7,12.7,0,0,0,3.9-3.3,14.5,14.5,0,0,0,2.2-4.7,22.4,22.4,0,0,0,.6-5.2V188.5h7.3v32.6a24.6,24.6,0,0,1-1.2,7.6,20,20,0,0,1-3.7,6.5,19.7,19.7,0,0,1-6.3,4.6A22.1,22.1,0,0,1,1330.8,241.5Z"/><path class="cls-1" d="M1395.8,240.2h-7.2V194.9H1372v-6.4h40.4v6.4h-16.6Z"/><path class="cls-1" d="M1441.1,240.2h-7.2V188.5h7.2Z"/><path class="cls-1" d="M1520.5,214.3a28.4,28.4,0,0,1-2.1,11,25.6,25.6,0,0,1-5.8,8.6,26.7,26.7,0,0,1-8.6,5.6,30.3,30.3,0,0,1-11,2,29.8,29.8,0,0,1-10.9-2,26.7,26.7,0,0,1-8.6-5.6,24,24,0,0,1-5.7-8.6,30.1,30.1,0,0,1,0-22.1,22.8,22.8,0,0,1,5.7-8.5,24.9,24.9,0,0,1,8.6-5.5,29.8,29.8,0,0,1,10.9-2,30.3,30.3,0,0,1,11,2,24.9,24.9,0,0,1,8.6,5.5,24.2,24.2,0,0,1,5.8,8.5A28.2,28.2,0,0,1,1520.5,214.3Zm-7.9,0a23.6,23.6,0,0,0-1.3-8,22,22,0,0,0-4-6.6,18.3,18.3,0,0,0-6.1-4.5,20,20,0,0,0-8.2-1.7,18.8,18.8,0,0,0-8,1.7,17.7,17.7,0,0,0-6.2,4.5,19.9,19.9,0,0,0-3.9,6.6,23.6,23.6,0,0,0-1.4,8,24.6,24.6,0,0,0,1.4,8.1,20.1,20.1,0,0,0,4,6.6,19.5,19.5,0,0,0,6.1,4.4,18.7,18.7,0,0,0,8,1.6,19.2,19.2,0,0,0,8.1-1.6,19.9,19.9,0,0,0,6.2-4.4,22,22,0,0,0,4-6.6A24.5,24.5,0,0,0,1512.6,214.3Z"/><path class="cls-1" d="M1581.4,229.8h.1V188.5h7.3v51.7h-9.2L1552.3,198h-.1v42.2H1545V188.5h9.4Z"/><path class="cls-1" d="M1618.1,240.2h-8l22.4-51.7h6.5l22.2,51.7H1653l-5.2-12.7h-24.5Zm7.7-19.1h19.4l-9.7-24.2Z"/><path class="cls-1" d="M1689.7,233.8h23.1v6.4h-30.3V188.5h7.2Z"/></svg>