<svg width="145" height="17" viewBox="0 0 145 17" fill="none" xmlns="http://www.w3.org/2000/svg">
<g clip-path="url(#clip0_9_371)">
<path d="M22.7463 4.46677H23.6592V5.22386C23.6528 5.53904 23.6172 5.85267 23.5529 6.15989H23.6279C23.8555 5.56744 24.2394 5.0638 24.7298 4.7141C25.2203 4.36441 25.7948 4.18474 26.379 4.19835C28.461 4.19835 29.8491 6.09795 29.8491 8.93358C29.8491 11.8931 28.4423 13.8753 26.354 13.8753C25.7755 13.8757 25.2093 13.692 24.7234 13.3465C24.2376 13.0009 23.8528 12.5082 23.6154 11.9275H23.5404C23.6239 12.7823 23.6594 13.642 23.6467 14.5016V16.938H22.7338L22.7463 4.46677ZM23.6779 9.02305C23.6779 11.4388 24.6721 12.953 26.2539 12.953C27.8358 12.953 28.93 11.4044 28.93 9.05058C28.93 6.69673 27.8733 5.12062 26.3039 5.12062C24.7346 5.12062 23.6779 6.64856 23.6779 9.02305Z" fill="#8C1713"/>
<path d="M32.0062 4.41173H32.919V5.15505C32.9093 5.46541 32.8737 5.77413 32.8127 6.07732H32.8878C33.085 5.48307 33.4531 4.97595 33.9361 4.63308C34.4191 4.2902 34.9907 4.13031 35.5638 4.17773H36.0202V5.16882C35.853 5.13686 35.6835 5.12074 35.5138 5.12064C35.0711 5.08937 34.6295 5.19773 34.2407 5.43301C33.852 5.6683 33.5323 6.02074 33.3192 6.44898C32.9785 7.11094 32.8384 7.87517 32.919 8.63076V13.6413H32.0062V4.41173Z" fill="#8C1713"/>
<path d="M37.3582 0.901611H38.4524V2.46396H37.3582V0.901611ZM37.4458 4.41173H38.3649V13.6413H37.4458V4.41173Z" fill="#8C1713"/>
<path d="M40.8221 4.41174L42.8666 10.5648C43.1292 11.3219 43.2668 11.7624 43.5669 12.7534H43.6294C43.9358 11.7417 44.0733 11.3081 44.3047 10.5648L46.3055 4.41174H47.2933L44.1671 13.6551H43.0229L39.7842 4.41174H40.8221Z" fill="#8C1713"/>
<path d="M48.4688 7.08906C48.4688 5.4097 49.8131 4.19836 51.6763 4.19836C53.8709 4.19836 54.7587 5.30646 54.7587 8.04574V11.3218C54.7587 11.6729 54.79 12.6158 54.815 13.0356C54.8299 13.2438 54.857 13.4507 54.8963 13.655H53.9647V13.4761C53.9334 13.0838 53.9209 12.7878 53.9209 12.4506V12.2097H53.8584L53.7208 12.4299C53.4285 12.9149 53.0243 13.3055 52.5497 13.5619C52.0751 13.8183 51.5471 13.9312 51.0198 13.8891C49.3129 13.8891 48.1374 12.781 48.1374 11.136C48.1374 9.38784 49.1566 8.54816 51.6763 8.21092L53.8584 7.92873V7.50889C53.891 7.18712 53.8576 6.86139 53.7605 6.55576C53.6634 6.25014 53.5052 5.97243 53.2975 5.74316C53.0898 5.51389 52.838 5.33891 52.5606 5.23116C52.2833 5.12341 51.9875 5.08564 51.6951 5.12063C51.4234 5.08744 51.1485 5.11509 50.8869 5.20191C50.6252 5.28873 50.3822 5.43293 50.1725 5.62583C49.9628 5.81873 49.7907 6.05634 49.6666 6.32436C49.5426 6.59239 49.469 6.88528 49.4504 7.18541H48.4876L48.4688 7.08906ZM53.8396 9.05059C53.8431 8.97208 53.86 8.895 53.8896 8.82347C53.7334 8.86738 53.5747 8.89957 53.4145 8.91982L51.3887 9.1676C49.8131 9.37407 49.094 10.0142 49.094 11.1567C49.094 12.2992 49.8881 12.953 51.1073 12.953C52.8955 12.953 53.8396 11.6797 53.8396 9.27772V9.05059Z" fill="#8C1713"/>
<path d="M58.5289 4.00568C58.5454 4.14504 58.5454 4.28617 58.5289 4.42552C58.6556 4.40789 58.7837 4.40789 58.9103 4.42552H60.2984V5.28585H58.8916C58.765 5.30348 58.6368 5.30348 58.5102 5.28585C58.5262 5.42524 58.5262 5.56629 58.5102 5.70568V11.0535C58.5102 12.5332 58.7853 12.9875 59.6544 12.9875C59.8531 12.981 60.0514 12.9626 60.2484 12.9324V13.8271C60.0078 13.8843 59.7629 13.9165 59.5168 13.9235C59.2043 13.9479 58.8913 13.8857 58.6062 13.7426C58.3212 13.5995 58.0732 13.3801 57.8849 13.1045C57.6223 12.6846 57.5598 12.2097 57.5598 10.9158V5.65751C57.5438 5.51812 57.5438 5.37706 57.5598 5.23767C57.4332 5.25553 57.305 5.25553 57.1784 5.23767H56.0217V4.41175H57.1784C57.305 4.3939 57.4332 4.3939 57.5598 4.41175C57.5433 4.2724 57.5433 4.13128 57.5598 3.99192V2.40204H58.5102L58.5289 4.00568Z" fill="#8C1713"/>
<path d="M68.5453 10.8882C68.4202 11.776 67.9951 12.5791 67.3552 13.1367C66.7153 13.6944 65.9077 13.9655 65.094 13.8959C62.7556 13.8959 61.2925 12.017 61.2925 9.00928C61.2925 6.00159 62.7556 4.19147 65.044 4.19147C67.3324 4.19147 68.6454 5.95341 68.6454 9.00928V9.19511H62.2241V9.53236C62.1985 10.4052 62.4846 11.2544 63.0211 11.8977C63.5576 12.541 64.3018 12.9273 65.094 12.9737C65.6777 13.0114 66.2538 12.8133 66.7143 12.4167C67.1747 12.0201 67.4879 11.4521 67.595 10.8194L68.5453 10.8882ZM67.2636 8.3692C67.409 8.3504 67.5559 8.3504 67.7013 8.3692C67.5825 6.30442 66.5883 5.07244 64.9564 5.07244C63.3246 5.07244 62.3617 6.33195 62.2554 8.3692C62.3966 8.35025 62.5394 8.35025 62.6806 8.3692H67.2636Z" fill="#8C1713"/>
<path d="M78.2741 10.8332C77.7364 12.836 76.3171 13.9304 74.2288 13.9304C71.6278 13.9304 69.9521 11.9963 69.9521 8.98865C69.9521 6.09796 71.6466 4.17084 74.1475 4.17084C76.6485 4.17084 78.2741 6.07044 78.2741 9.20201C78.2741 9.29149 78.2741 9.53926 78.2741 9.80768H72.6469C72.5206 9.82098 72.3933 9.79723 72.2781 9.73886C72.3406 11.1567 73.0408 11.9413 74.2476 11.9413C74.5776 11.9697 74.9068 11.8761 75.1831 11.6755C75.4594 11.4748 75.6671 11.1784 75.7732 10.8332H78.2741ZM75.5106 7.96315C75.6444 7.9512 75.779 7.97236 75.9045 8.02509C75.9171 7.76474 75.8798 7.50439 75.795 7.26095C75.7102 7.01751 75.5799 6.79643 75.4124 6.61208C75.2449 6.42773 75.0441 6.28423 74.8229 6.19091C74.6018 6.0976 74.3653 6.05655 74.1288 6.07043C73.0909 6.07043 72.4844 6.75869 72.253 8.03197C72.4579 7.9798 72.6683 7.95896 72.8783 7.97003L75.5106 7.96315Z" fill="#8C1713"/>
<path d="M85.1518 16.9518V14.715C85.1375 13.9122 85.1772 13.1093 85.2706 12.3129H85.1956C84.9662 12.8178 84.6065 13.2367 84.1615 13.5171C83.7165 13.7976 83.2062 13.927 82.6946 13.8891C80.7126 13.8891 79.3495 11.9275 79.3495 9.07125C79.3495 6.21497 80.7751 4.25343 82.8196 4.25343C83.3448 4.23822 83.8618 4.39842 84.3026 4.71292C84.7435 5.02743 85.0875 5.4815 85.2893 6.01537H85.3706C85.3008 5.72272 85.2589 5.42286 85.2456 5.12064V4.48056H87.4464V16.9518H85.1518ZM81.6817 9.02307C81.6817 10.6818 82.3695 11.7761 83.4386 11.7761C84.5078 11.7761 85.1768 10.7506 85.1768 9.02307C85.1768 7.29554 84.4765 6.27003 83.4074 6.27003C82.3382 6.27003 81.6567 7.40566 81.6567 9.02307H81.6817Z" fill="#8C1713"/>
<path d="M94.4304 13.0838C94.4287 12.8493 94.4647 12.6163 94.5367 12.3956H94.4741C94.2166 12.8713 93.85 13.2642 93.411 13.5347C92.9721 13.8053 92.4762 13.9441 91.9732 13.9373C91.4925 13.9588 91.0149 13.8434 90.5867 13.6023C90.1584 13.3612 89.7939 13.0024 89.5285 12.5608C89.1971 11.9757 89.1033 11.3701 89.1033 9.71825V4.41176H91.423V9.84213C91.3775 10.3124 91.4465 10.7875 91.623 11.2187C91.7393 11.4335 91.9054 11.6104 92.1043 11.7314C92.3031 11.8523 92.5276 11.9129 92.7547 11.9069C93.8051 11.9069 94.2928 11.0328 94.2928 9.15387V4.33606H96.6125V13.6413H94.4179L94.4304 13.0838Z" fill="#8C1713"/>
<path d="M98.6445 0.901611H100.964V3.3174H98.6445V0.901611ZM98.6445 4.41173H100.964V13.6413H98.6445V4.41173Z" fill="#8C1713"/>
<path d="M106.979 6.33196H105.985C105.852 6.34056 105.719 6.32427 105.591 6.28379C105.628 6.42447 105.643 6.57116 105.635 6.71739V10.4684C105.635 11.4733 105.897 11.8449 106.504 11.8449C106.664 11.8346 106.822 11.8116 106.979 11.7761V13.7101C106.609 13.8344 106.222 13.8903 105.835 13.8753C105.432 13.9269 105.025 13.859 104.654 13.6787C104.284 13.4984 103.964 13.2122 103.728 12.8498C103.409 12.3336 103.315 11.7899 103.315 10.5648V6.71739C103.307 6.57116 103.322 6.42447 103.359 6.28379C103.231 6.32427 103.098 6.34056 102.965 6.33196H102.077V4.41172H102.965C103.098 4.402 103.232 4.4207 103.359 4.46678C103.322 4.32374 103.307 4.17479 103.315 4.0263V2.18176H105.635V4.00565C105.643 4.15415 105.628 4.30309 105.591 4.44614C105.718 4.40005 105.852 4.38135 105.985 4.39107H106.979V6.33196Z" fill="#8C1713"/>
<path d="M107.954 14.887C108.28 14.9987 108.62 15.0545 108.961 15.0522C109.319 15.0596 109.667 14.9187 109.936 14.6575C110.204 14.3962 110.374 14.0336 110.412 13.6413L107.467 4.44616H109.968L110.931 8.266C111.262 9.57369 111.324 9.87652 111.556 11.1016H111.631C111.789 10.1483 111.997 9.20605 112.256 8.27976L113.288 4.41174H115.757L112.581 14.2126C111.925 16.2154 111.068 16.9656 109.486 16.9656C108.98 16.9668 108.475 16.8951 107.986 16.7522L107.954 14.887Z" fill="#8C1713"/>
<path d="M115.957 4.41171H116.92L118.446 10.2C118.69 11.1429 118.809 11.5765 119.071 12.7534H119.146C119.421 11.5971 119.546 11.0741 119.771 10.2L121.285 4.39795H122.716L124.229 10.2C124.473 11.136 124.58 11.5765 124.855 12.7672H124.936C125.211 11.5903 125.33 11.0672 125.561 10.2L127.043 4.41171H127.962L125.53 13.6413H124.198L122.666 7.75665C122.454 6.91698 122.316 6.38013 122.041 5.20321H121.966C121.691 6.38013 121.572 6.88256 121.341 7.75665L119.79 13.6413H118.427L115.957 4.41171Z" fill="#8C1713"/>
<path d="M129.438 0.901611H130.538V2.46396H129.438V0.901611ZM129.525 4.41173H130.444V13.6413H129.544L129.525 4.41173Z" fill="#8C1713"/>
<path d="M133.114 4.41172H134.033V5.15504C134.021 5.4633 133.983 5.7697 133.921 6.07042H133.996C134.191 5.47606 134.558 4.96849 135.04 4.62541C135.522 4.28233 136.093 4.12265 136.666 4.17083H137.128V5.16192C136.961 5.13054 136.791 5.11443 136.622 5.11374C136.178 5.08365 135.736 5.19244 135.347 5.42754C134.957 5.66263 134.636 6.0144 134.421 6.44208C134.086 7.10614 133.948 7.86916 134.027 8.62386V13.6413H133.108L133.114 4.41172Z" fill="#8C1713"/>
<path d="M144.925 10.8882C144.619 12.7741 143.324 13.8959 141.474 13.8959C139.141 13.8959 137.672 12.017 137.672 9.00928C137.672 6.00159 139.141 4.19147 141.424 4.19147C143.706 4.19147 145.025 5.95341 145.025 9.00928V9.19511H138.604V9.53236C138.578 10.4052 138.864 11.2544 139.401 11.8977C139.937 12.541 140.681 12.9273 141.474 12.9737C142.04 12.9992 142.596 12.8041 143.044 12.4226C143.493 12.0411 143.804 11.4978 143.925 10.8882H144.925ZM143.643 8.3692C143.791 8.35036 143.94 8.35036 144.087 8.3692C143.962 6.30442 142.974 5.07244 141.336 5.07244C139.698 5.07244 138.741 6.33195 138.635 8.3692C138.776 8.35025 138.919 8.35025 139.06 8.3692H143.643Z" fill="#8C1713"/>
<path d="M0 14.7083H6.46501C7.35953 14.7384 8.25044 14.5705 9.08489 14.2145C9.91935 13.8585 10.6804 13.3216 11.3228 12.6357C11.9652 11.9499 12.4759 11.129 12.8247 10.2217C13.1735 9.3145 13.3533 8.33939 13.3533 7.35425C13.3533 6.36911 13.1735 5.39401 12.8247 4.48677C12.4759 3.57953 11.9652 2.75863 11.3228 2.07277C10.6804 1.38691 9.91935 0.850046 9.08489 0.494026C8.25044 0.138006 7.35953 -0.0299205 6.46501 0.000206635H0V14.7083Z" fill="#8C1713"/>
</g>
<defs>
<clipPath id="clip0_9_371">
<rect width="145" height="17" fill="white"/>
</clipPath>
</defs>
</svg>
